<svg id="visual" viewBox="0 0 2160 1440" width="2160" height="1440" xmlns="http://www.w3.org/2000/svg" xmlns:xlink="http://www.w3.org/1999/xlink" version="1.1"><rect x="0" y="0" width="2160" height="1440" fill="#1a1a19"></rect><defs><linearGradient id="grad1_0" x1="33.3%" y1="0%" x2="100%" y2="100%"><stop offset="20%" stop-color="#f9ba08" stop-opacity="1"></stop><stop offset="80%" stop-color="#f9ba08" stop-opacity="1"></stop></linearGradient></defs><defs><linearGradient id="grad1_1" x1="33.3%" y1="0%" x2="100%" y2="100%"><stop offset="20%" stop-color="#f9ba08" stop-opacity="1"></stop><stop offset="80%" stop-color="#b2921a" stop-opacity="1"></stop></linearGradient></defs><defs><linearGradient id="grad1_2" x1="33.3%" y1="0%" x2="100%" y2="100%"><stop offset="20%" stop-color="#756920" stop-opacity="1"></stop><stop offset="80%" stop-color="#b2921a" stop-opacity="1"></stop></linearGradient></defs><defs><linearGradient id="grad1_3" x1="33.3%" y1="0%" x2="100%" y2="100%"><stop offset="20%" stop-color="#756920" stop-opacity="1"></stop><stop offset="80%" stop-color="#42401f" stop-opacity="1"></stop></linearGradient></defs><defs><linearGradient id="grad1_4" x1="33.3%" y1="0%" x2="100%" y2="100%"><stop offset="20%" stop-color="#1a1a19" stop-opacity="1"></stop><stop offset="80%" stop-color="#42401f" stop-opacity="1"></stop></linearGradient></defs><defs><linearGradient id="grad2_0" x1="0%" y1="0%" x2="66.7%" y2="100%"><stop offset="20%" stop-color="#f9ba08" stop-opacity="1"></stop><stop offset="80%" stop-color="#f9ba08" stop-opacity="1"></stop></linearGradient></defs><defs><linearGradient id="grad2_1" x1="0%" y1="0%" x2="66.7%" y2="100%"><stop offset="20%" stop-color="#b2921a" stop-opacity="1"></stop><stop offset="80%" stop-color="#f9ba08" stop-opacity="1"></stop></linearGradient></defs><defs><linearGradient id="grad2_2" x1="0%" y1="0%" x2="66.7%" y2="100%"><stop offset="20%" stop-color="#b2921a" stop-opacity="1"></stop><stop offset="80%" stop-color="#756920" stop-opacity="1"></stop></linearGradient></defs><defs><linearGradient id="grad2_3" x1="0%" y1="0%" x2="66.7%" y2="100%"><stop offset="20%" stop-color="#42401f" stop-opacity="1"></stop><stop offset="80%" stop-color="#756920" stop-opacity="1"></stop></linearGradient></defs><defs><linearGradient id="grad2_4" x1="0%" y1="0%" x2="66.7%" y2="100%"><stop offset="20%" stop-color="#42401f" stop-opacity="1"></stop><stop offset="80%" stop-color="#1a1a19" stop-opacity="1"></stop></linearGradient></defs><g transform="translate(2160, 0)"><path d="M0 778.8C-79.4 770.1 -158.8 761.4 -240.7 740.7C-322.5 719.9 -406.9 687.1 -449.7 618.9C-492.4 550.7 -493.7 447.2 -516.2 375C-538.6 302.8 -582.3 261.9 -629.6 204.6C-676.9 147.3 -727.9 73.6 -778.8 0L0 0Z" fill="#2d2d1d"></path><path d="M0 623C-63.5 616.1 -127 609.2 -192.5 592.5C-258 575.9 -325.5 549.7 -359.7 495.1C-394 440.6 -395 357.8 -412.9 300C-430.9 242.2 -465.8 209.5 -503.7 163.7C-541.5 117.8 -582.3 58.9 -623 0L0 0Z" fill="#5a5521"></path><path d="M0 467.3C-47.6 462.1 -95.3 456.9 -144.4 444.4C-193.5 432 -244.1 412.2 -269.8 371.3C-295.5 330.4 -296.2 268.3 -309.7 225C-323.2 181.7 -349.4 157.1 -377.8 122.7C-406.1 88.4 -436.7 44.2 -467.3 0L0 0Z" fill="#927e1e"></path><path d="M0 311.5C-31.8 308 -63.5 304.6 -96.3 296.3C-129 288 -162.7 274.8 -179.9 247.6C-197 220.3 -197.5 178.9 -206.5 150C-215.4 121.1 -232.9 104.7 -251.8 81.8C-270.8 58.9 -291.1 29.5 -311.5 0L0 0Z" fill="#d4a613"></path><path d="M0 155.8C-15.9 154 -31.8 152.3 -48.1 148.1C-64.5 144 -81.4 137.4 -89.9 123.8C-98.5 110.1 -98.7 89.4 -103.2 75C-107.7 60.6 -116.5 52.4 -125.9 40.9C-135.4 29.5 -145.6 14.7 -155.8 0L0 0Z" fill="#f9ba08"></path></g><g transform="translate(0, 1440)"><path d="M0 -778.8C77.1 -768.9 154.2 -759 240.7 -740.7C327.1 -722.4 422.9 -695.7 442.6 -609.2C462.3 -522.7 406.1 -376.3 415 -301.5C424 -226.7 498.2 -223.4 569.7 -185.1C641.2 -146.8 710 -73.4 778.8 0L0 0Z" fill="#2d2d1d"></path><path d="M0 -623C61.7 -615.1 123.4 -607.2 192.5 -592.5C261.7 -577.9 338.3 -556.6 354.1 -487.4C369.9 -418.1 324.9 -301.1 332 -241.2C339.2 -181.4 398.5 -178.7 455.7 -148.1C512.9 -117.4 568 -58.7 623 0L0 0Z" fill="#5a5521"></path><path d="M0 -467.3C46.3 -461.3 92.5 -455.4 144.4 -444.4C196.3 -433.4 253.7 -417.4 265.6 -365.5C277.4 -313.6 243.6 -225.8 249 -180.9C254.4 -136 298.9 -134.1 341.8 -111.1C384.7 -88.1 426 -44 467.3 0L0 0Z" fill="#927e1e"></path><path d="M0 -311.5C30.8 -307.6 61.7 -303.6 96.3 -296.3C130.8 -289 169.1 -278.3 177 -243.7C184.9 -209.1 162.4 -150.5 166 -120.6C169.6 -90.7 199.3 -89.4 227.9 -74C256.5 -58.7 284 -29.4 311.5 0L0 0Z" fill="#d4a613"></path><path d="M0 -155.8C15.4 -153.8 30.8 -151.8 48.1 -148.1C65.4 -144.5 84.6 -139.1 88.5 -121.8C92.5 -104.5 81.2 -75.3 83 -60.3C84.8 -45.3 99.6 -44.7 113.9 -37C128.2 -29.4 142 -14.7 155.8 0L0 0Z" fill="#f9ba08"></path></g></svg>