<svg width="1023" height="1103" viewBox="0 0 1023 1103" fill="none" xmlns="http://www.w3.org/2000/svg">
<path fill="#f2b714 " opacity="" d="M318.635 28.6942C198.697 129.217 180.111 319.298 98.8809 459.527C70.6041 508.322 34.0667 551.992 15.0036 606.123C-28.7619 730.026 31.472 870.572 112.093 968.981C150.536 1015.93 195.44 1058.94 249.77 1078.72C291.55 1093.94 336.348 1094.57 380.325 1094.97L1150.79 1102.9C1236.81 1103.77 1332.39 1100.62 1394.24 1034.21C1436.87 988.478 1454.18 921.692 1468.88 857.944C1486.93 779.613 1503.3 694.546 1475.2 619.94C1443.11 534.582 1361.96 486.21 1311.55 412.555C1229.74 293.223 1231.62 112.731 1127.44 17.4664C1078.8 -26.9959 1014.62 -44.4321 952.083 -53.1502C834.184 -69.6089 722.506 -38.5408 606.725 -42.8734C507.756 -46.572 400.739 -40.1259 318.635 28.6942Z"/>
</svg>
