<svg id="visual" viewBox="0 0 900 600" width="900" height="600" xmlns="http://www.w3.org/2000/svg" xmlns:xlink="http://www.w3.org/1999/xlink" version="1.1"><g stroke-width="1" stroke-linejoin="bevel"><path d="M431 269L428 333L503 335Z" fill="#1c1b00" stroke="#1c1b00"></path><path d="M503 335L509 269L431 269Z" fill="#151300" stroke="#151300"></path><path d="M428 333L438 350L503 335Z" fill="#171500" stroke="#171500"></path><path d="M438 350L503 360L503 335Z" fill="#000000" stroke="#000000"></path><path d="M538 304L529 270L509 269Z" fill="#0b0800" stroke="#0b0800"></path><path d="M529 270L511 250L509 269Z" fill="#0b0800" stroke="#0b0800"></path><path d="M509 269L511 250L431 269Z" fill="#0b0800" stroke="#0b0800"></path><path d="M538 304L509 269L503 335Z" fill="#0b0800" stroke="#0b0800"></path><path d="M503 360L538 304L503 335Z" fill="#151300" stroke="#151300"></path><path d="M438 350L501 383L503 360Z" fill="#1c1b00" stroke="#1c1b00"></path><path d="M598 365L604 336L538 304Z" fill="#1b1900" stroke="#1b1900"></path><path d="M342 324L396 355L428 333Z" fill="#110e00" stroke="#110e00"></path><path d="M428 333L396 355L438 350Z" fill="#0b0800" stroke="#0b0800"></path><path d="M438 350L495 397L501 383Z" fill="#070400" stroke="#070400"></path><path d="M572 161L484 215L511 250Z" fill="#1c1b00" stroke="#1c1b00"></path><path d="M511 250L484 215L431 269Z" fill="#171500" stroke="#171500"></path><path d="M421 403L495 397L438 350Z" fill="#0b0800" stroke="#0b0800"></path><path d="M598 365L538 304L503 360Z" fill="#1c1b00" stroke="#1c1b00"></path><path d="M396 355L421 403L438 350Z" fill="#000000" stroke="#000000"></path><path d="M337 246L342 324L431 269Z" fill="#1c1b00" stroke="#1c1b00"></path><path d="M431 269L342 324L428 333Z" fill="#1b1900" stroke="#1b1900"></path><path d="M356 423L421 441L421 403Z" fill="#151300" stroke="#151300"></path><path d="M337 206L337 246L431 269Z" fill="#171500" stroke="#171500"></path><path d="M598 365L503 360L501 383Z" fill="#070400" stroke="#070400"></path><path d="M538 304L608 257L529 270Z" fill="#131100" stroke="#131100"></path><path d="M529 270L608 257L511 250Z" fill="#0e0b00" stroke="#0e0b00"></path><path d="M356 423L421 403L396 355Z" fill="#0b0800" stroke="#0b0800"></path><path d="M421 403L421 441L495 397Z" fill="#131100" stroke="#131100"></path><path d="M531 443L598 365L501 383Z" fill="#070400" stroke="#070400"></path><path d="M531 443L501 383L495 397Z" fill="#110e00" stroke="#110e00"></path><path d="M604 336L608 257L538 304Z" fill="#151300" stroke="#151300"></path><path d="M515 461L531 443L495 397Z" fill="#131100" stroke="#131100"></path><path d="M417 142L337 206L431 269Z" fill="#191700" stroke="#191700"></path><path d="M337 206L331 214L337 246Z" fill="#070400" stroke="#070400"></path><path d="M271 273L300 340L342 324Z" fill="#0b0800" stroke="#0b0800"></path><path d="M342 324L356 423L396 355Z" fill="#131100" stroke="#131100"></path><path d="M421 441L515 461L495 397Z" fill="#131100" stroke="#131100"></path><path d="M498 124L417 142L484 215Z" fill="#191700" stroke="#191700"></path><path d="M484 215L417 142L431 269Z" fill="#070400" stroke="#070400"></path><path d="M271 273L342 324L337 246Z" fill="#131100" stroke="#131100"></path><path d="M342 324L300 340L356 423Z" fill="#1b1900" stroke="#1b1900"></path><path d="M608 257L572 161L511 250Z" fill="#191700" stroke="#191700"></path><path d="M572 161L498 124L484 215Z" fill="#151300" stroke="#151300"></path><path d="M515 461L572 453L531 443Z" fill="#191700" stroke="#191700"></path><path d="M531 443L572 453L598 365Z" fill="#0e0b00" stroke="#0e0b00"></path><path d="M337 206L302 212L331 214Z" fill="#171500" stroke="#171500"></path><path d="M331 214L302 212L337 246Z" fill="#070400" stroke="#070400"></path><path d="M282 156L302 212L337 206Z" fill="#1c1b00" stroke="#1c1b00"></path><path d="M671 231L622 197L608 257Z" fill="#1c1b00" stroke="#1c1b00"></path><path d="M608 257L622 197L572 161Z" fill="#0e0b00" stroke="#0e0b00"></path><path d="M598 365L661 325L604 336Z" fill="#131100" stroke="#131100"></path><path d="M604 336L661 325L608 257Z" fill="#1b1900" stroke="#1b1900"></path><path d="M684 353L661 325L598 365Z" fill="#1c1b00" stroke="#1c1b00"></path><path d="M302 212L271 273L337 246Z" fill="#110e00" stroke="#110e00"></path><path d="M309 439L335 461L356 423Z" fill="#070400" stroke="#070400"></path><path d="M356 423L335 461L421 441Z" fill="#171500" stroke="#171500"></path><path d="M421 441L458 511L515 461Z" fill="#1c1b00" stroke="#1c1b00"></path><path d="M309 439L356 423L300 340Z" fill="#070400" stroke="#070400"></path><path d="M230 429L309 439L300 340Z" fill="#171500" stroke="#171500"></path><path d="M405 532L458 511L421 441Z" fill="#131100" stroke="#131100"></path><path d="M515 461L562 519L572 453Z" fill="#110e00" stroke="#110e00"></path><path d="M444 68L391 105L417 142Z" fill="#110e00" stroke="#110e00"></path><path d="M417 142L320 127L337 206Z" fill="#191700" stroke="#191700"></path><path d="M661 325L671 231L608 257Z" fill="#171500" stroke="#171500"></path><path d="M622 197L620 148L572 161Z" fill="#0e0b00" stroke="#0e0b00"></path><path d="M633 140L620 148L622 197Z" fill="#191700" stroke="#191700"></path><path d="M572 161L543 98L498 124Z" fill="#070400" stroke="#070400"></path><path d="M565 84L543 98L572 161Z" fill="#191700" stroke="#191700"></path><path d="M498 124L444 68L417 142Z" fill="#1b1900" stroke="#1b1900"></path><path d="M648 468L632 449L572 453Z" fill="#0e0b00" stroke="#0e0b00"></path><path d="M572 453L632 449L598 365Z" fill="#070400" stroke="#070400"></path><path d="M670 411L684 353L598 365Z" fill="#000000" stroke="#000000"></path><path d="M661 325L729 245L671 231Z" fill="#0e0b00" stroke="#0e0b00"></path><path d="M444 68L379 96L391 105Z" fill="#171500" stroke="#171500"></path><path d="M391 105L320 127L417 142Z" fill="#151300" stroke="#151300"></path><path d="M379 96L320 127L391 105Z" fill="#151300" stroke="#151300"></path><path d="M228 204L213 282L271 273Z" fill="#0b0800" stroke="#0b0800"></path><path d="M632 449L670 411L598 365Z" fill="#191700" stroke="#191700"></path><path d="M684 129L633 140L622 197Z" fill="#171500" stroke="#171500"></path><path d="M620 148L565 84L572 161Z" fill="#0b0800" stroke="#0b0800"></path><path d="M213 282L237 346L271 273Z" fill="#000000" stroke="#000000"></path><path d="M271 273L237 346L300 340Z" fill="#1c1b00" stroke="#1c1b00"></path><path d="M320 127L282 156L337 206Z" fill="#1b1900" stroke="#1b1900"></path><path d="M496 65L444 68L498 124Z" fill="#1b1900" stroke="#1b1900"></path><path d="M458 511L562 519L515 461Z" fill="#0b0800" stroke="#0b0800"></path><path d="M364 518L421 441L335 461Z" fill="#110e00" stroke="#110e00"></path><path d="M364 518L405 532L421 441Z" fill="#1b1900" stroke="#1b1900"></path><path d="M458 511L488 600L562 519Z" fill="#171500" stroke="#171500"></path><path d="M335 568L364 518L335 461Z" fill="#171500" stroke="#171500"></path><path d="M335 568L335 461L254 571Z" fill="#131100" stroke="#131100"></path><path d="M543 98L496 65L498 124Z" fill="#191700" stroke="#191700"></path><path d="M565 84L496 65L543 98Z" fill="#131100" stroke="#131100"></path><path d="M633 140L565 84L620 148Z" fill="#0b0800" stroke="#0b0800"></path><path d="M562 519L648 468L572 453Z" fill="#151300" stroke="#151300"></path><path d="M632 449L648 468L670 411Z" fill="#1b1900" stroke="#1b1900"></path><path d="M364 518L381 536L405 532Z" fill="#191700" stroke="#191700"></path><path d="M405 532L488 600L458 511Z" fill="#151300" stroke="#151300"></path><path d="M228 204L271 273L302 212Z" fill="#0e0b00" stroke="#0e0b00"></path><path d="M648 468L699 413L670 411Z" fill="#000000" stroke="#000000"></path><path d="M670 411L699 413L684 353Z" fill="#0e0b00" stroke="#0e0b00"></path><path d="M750 266L729 245L661 325Z" fill="#110e00" stroke="#110e00"></path><path d="M282 156L228 204L302 212Z" fill="#0b0800" stroke="#0b0800"></path><path d="M213 282L210 351L237 346Z" fill="#1c1b00" stroke="#1c1b00"></path><path d="M237 346L230 429L300 340Z" fill="#110e00" stroke="#110e00"></path><path d="M642 67L575 63L565 84Z" fill="#131100" stroke="#131100"></path><path d="M565 84L575 63L496 65Z" fill="#0e0b00" stroke="#0e0b00"></path><path d="M259 130L228 204L282 156Z" fill="#110e00" stroke="#110e00"></path><path d="M259 130L221 202L228 204Z" fill="#000000" stroke="#000000"></path><path d="M228 204L221 202L213 282Z" fill="#1c1b00" stroke="#1c1b00"></path><path d="M210 351L230 429L237 346Z" fill="#131100" stroke="#131100"></path><path d="M364 518L335 568L381 536Z" fill="#171500" stroke="#171500"></path><path d="M750 266L661 325L684 353Z" fill="#0b0800" stroke="#0b0800"></path><path d="M671 231L684 129L622 197Z" fill="#0b0800" stroke="#0b0800"></path><path d="M633 140L642 67L565 84Z" fill="#110e00" stroke="#110e00"></path><path d="M273 84L259 130L320 127Z" fill="#1b1900" stroke="#1b1900"></path><path d="M320 127L259 130L282 156Z" fill="#110e00" stroke="#110e00"></path><path d="M273 84L320 127L316 46Z" fill="#070400" stroke="#070400"></path><path d="M702 134L684 129L723 167Z" fill="#171500" stroke="#171500"></path><path d="M769 337L750 266L684 353Z" fill="#1c1b00" stroke="#1c1b00"></path><path d="M723 167L684 129L671 231Z" fill="#131100" stroke="#131100"></path><path d="M743 391L741 387L699 413Z" fill="#070400" stroke="#070400"></path><path d="M699 413L741 387L684 353Z" fill="#151300" stroke="#151300"></path><path d="M723 167L671 231L729 245Z" fill="#070400" stroke="#070400"></path><path d="M684 129L642 67L633 140Z" fill="#110e00" stroke="#110e00"></path><path d="M768 203L723 167L729 245Z" fill="#0b0800" stroke="#0b0800"></path><path d="M746 476L743 391L699 413Z" fill="#110e00" stroke="#110e00"></path><path d="M741 387L769 337L684 353Z" fill="#0e0b00" stroke="#0e0b00"></path><path d="M213 282L176 310L210 351Z" fill="#191700" stroke="#191700"></path><path d="M210 351L177 454L230 429Z" fill="#171500" stroke="#171500"></path><path d="M136 249L176 310L213 282Z" fill="#131100" stroke="#131100"></path><path d="M259 130L196 183L221 202Z" fill="#0b0800" stroke="#0b0800"></path><path d="M316 46L320 127L379 96Z" fill="#151300" stroke="#151300"></path><path d="M729 62L642 67L684 129Z" fill="#1b1900" stroke="#1b1900"></path><path d="M204 99L196 183L259 130Z" fill="#0e0b00" stroke="#0e0b00"></path><path d="M221 202L143 230L213 282Z" fill="#171500" stroke="#171500"></path><path d="M218 517L335 461L309 439Z" fill="#171500" stroke="#171500"></path><path d="M384 600L488 600L405 532Z" fill="#151300" stroke="#151300"></path><path d="M366 0L379 96L444 68Z" fill="#131100" stroke="#131100"></path><path d="M366 0L316 46L379 96Z" fill="#1b1900" stroke="#1b1900"></path><path d="M458 0L444 68L496 65Z" fill="#151300" stroke="#151300"></path><path d="M458 0L496 65L502 0Z" fill="#070400" stroke="#070400"></path><path d="M384 600L405 532L381 536Z" fill="#151300" stroke="#151300"></path><path d="M562 519L646 566L648 468Z" fill="#151300" stroke="#151300"></path><path d="M648 468L746 476L699 413Z" fill="#131100" stroke="#131100"></path><path d="M502 0L496 65L508 0Z" fill="#070400" stroke="#070400"></path><path d="M743 391L769 337L741 387Z" fill="#070400" stroke="#070400"></path><path d="M508 0L496 65L575 63Z" fill="#070400" stroke="#070400"></path><path d="M633 0L508 0L575 63Z" fill="#131100" stroke="#131100"></path><path d="M335 568L384 600L381 536Z" fill="#131100" stroke="#131100"></path><path d="M576 600L617 577L562 519Z" fill="#000000" stroke="#000000"></path><path d="M488 600L576 600L562 519Z" fill="#070400" stroke="#070400"></path><path d="M803 231L768 203L750 266Z" fill="#110e00" stroke="#110e00"></path><path d="M750 266L768 203L729 245Z" fill="#0b0800" stroke="#0b0800"></path><path d="M794 112L729 62L702 134Z" fill="#191700" stroke="#191700"></path><path d="M641 0L633 0L642 67Z" fill="#0e0b00" stroke="#0e0b00"></path><path d="M694 600L646 566L617 577Z" fill="#131100" stroke="#131100"></path><path d="M617 577L646 566L562 519Z" fill="#110e00" stroke="#110e00"></path><path d="M458 0L366 0L444 68Z" fill="#0e0b00" stroke="#0e0b00"></path><path d="M220 0L204 99L273 84Z" fill="#191700" stroke="#191700"></path><path d="M320 600L348 600L335 568Z" fill="#1b1900" stroke="#1b1900"></path><path d="M335 568L348 600L384 600Z" fill="#070400" stroke="#070400"></path><path d="M576 600L600 600L617 577Z" fill="#070400" stroke="#070400"></path><path d="M138 447L177 454L210 351Z" fill="#0b0800" stroke="#0b0800"></path><path d="M230 429L218 517L309 439Z" fill="#110e00" stroke="#110e00"></path><path d="M207 511L218 517L230 429Z" fill="#191700" stroke="#191700"></path><path d="M734 513L746 476L648 468Z" fill="#110e00" stroke="#110e00"></path><path d="M743 391L804 394L769 337Z" fill="#151300" stroke="#151300"></path><path d="M279 600L320 600L335 568Z" fill="#0b0800" stroke="#0b0800"></path><path d="M114 180L143 230L196 183Z" fill="#000000" stroke="#000000"></path><path d="M196 183L143 230L221 202Z" fill="#151300" stroke="#151300"></path><path d="M176 310L111 327L210 351Z" fill="#1c1b00" stroke="#1c1b00"></path><path d="M275 0L273 84L316 46Z" fill="#1b1900" stroke="#1b1900"></path><path d="M273 84L204 99L259 130Z" fill="#1c1b00" stroke="#1c1b00"></path><path d="M177 454L207 511L230 429Z" fill="#131100" stroke="#131100"></path><path d="M218 517L254 571L335 461Z" fill="#0e0b00" stroke="#0e0b00"></path><path d="M143 230L136 249L213 282Z" fill="#1b1900" stroke="#1b1900"></path><path d="M646 566L734 513L648 468Z" fill="#070400" stroke="#070400"></path><path d="M694 600L734 513L646 566Z" fill="#0e0b00" stroke="#0e0b00"></path><path d="M155 600L254 571L218 517Z" fill="#000000" stroke="#000000"></path><path d="M769 337L803 231L750 266Z" fill="#151300" stroke="#151300"></path><path d="M641 0L642 67L712 0Z" fill="#171500" stroke="#171500"></path><path d="M862 325L803 231L769 337Z" fill="#191700" stroke="#191700"></path><path d="M684 129L702 134L729 62Z" fill="#1c1b00" stroke="#1c1b00"></path><path d="M642 67L633 0L575 63Z" fill="#171500" stroke="#171500"></path><path d="M65 271L120 288L136 249Z" fill="#151300" stroke="#151300"></path><path d="M136 249L120 288L176 310Z" fill="#000000" stroke="#000000"></path><path d="M702 134L723 167L794 112Z" fill="#0b0800" stroke="#0b0800"></path><path d="M784 450L743 391L746 476Z" fill="#191700" stroke="#191700"></path><path d="M784 450L804 394L743 391Z" fill="#1b1900" stroke="#1b1900"></path><path d="M805 478L784 450L746 476Z" fill="#131100" stroke="#131100"></path><path d="M204 99L152 148L196 183Z" fill="#151300" stroke="#151300"></path><path d="M143 230L69 201L136 249Z" fill="#000000" stroke="#000000"></path><path d="M254 571L279 600L335 568Z" fill="#000000" stroke="#000000"></path><path d="M65 271L111 327L120 288Z" fill="#191700" stroke="#191700"></path><path d="M120 288L111 327L176 310Z" fill="#1c1b00" stroke="#1c1b00"></path><path d="M794 112L723 167L768 203Z" fill="#191700" stroke="#191700"></path><path d="M366 0L275 0L316 46Z" fill="#191700" stroke="#191700"></path><path d="M204 99L111 89L152 148Z" fill="#171500" stroke="#171500"></path><path d="M207 511L155 600L218 517Z" fill="#000000" stroke="#000000"></path><path d="M254 571L155 600L279 600Z" fill="#000000" stroke="#000000"></path><path d="M177 454L153 512L207 511Z" fill="#1c1b00" stroke="#1c1b00"></path><path d="M107 432L138 447L91 405Z" fill="#1b1900" stroke="#1b1900"></path><path d="M784 450L812 440L804 394Z" fill="#070400" stroke="#070400"></path><path d="M804 394L862 325L769 337Z" fill="#1c1b00" stroke="#1c1b00"></path><path d="M805 478L812 440L784 450Z" fill="#151300" stroke="#151300"></path><path d="M69 201L114 180L52 187Z" fill="#0e0b00" stroke="#0e0b00"></path><path d="M152 148L114 180L196 183Z" fill="#0e0b00" stroke="#0e0b00"></path><path d="M600 600L694 600L617 577Z" fill="#0e0b00" stroke="#0e0b00"></path><path d="M791 533L805 478L746 476Z" fill="#110e00" stroke="#110e00"></path><path d="M138 447L153 512L177 454Z" fill="#070400" stroke="#070400"></path><path d="M867 176L794 112L768 203Z" fill="#171500" stroke="#171500"></path><path d="M791 533L746 476L734 513Z" fill="#070400" stroke="#070400"></path><path d="M91 405L210 351L111 327Z" fill="#1b1900" stroke="#1b1900"></path><path d="M91 405L138 447L210 351Z" fill="#191700" stroke="#191700"></path><path d="M138 447L107 432L153 512Z" fill="#1b1900" stroke="#1b1900"></path><path d="M694 600L707 600L734 513Z" fill="#070400" stroke="#070400"></path><path d="M38 331L91 405L111 327Z" fill="#0e0b00" stroke="#0e0b00"></path><path d="M54 545L127 564L153 512Z" fill="#191700" stroke="#191700"></path><path d="M804 0L712 0L729 62Z" fill="#131100" stroke="#131100"></path><path d="M729 62L712 0L642 67Z" fill="#1c1b00" stroke="#1c1b00"></path><path d="M275 0L220 0L273 84Z" fill="#070400" stroke="#070400"></path><path d="M900 289L862 325L900 329Z" fill="#1c1b00" stroke="#1c1b00"></path><path d="M900 329L862 325L900 408Z" fill="#151300" stroke="#151300"></path><path d="M867 176L819 105L794 112Z" fill="#0b0800" stroke="#0b0800"></path><path d="M707 600L791 533L734 513Z" fill="#070400" stroke="#070400"></path><path d="M862 325L804 394L900 408Z" fill="#131100" stroke="#131100"></path><path d="M69 201L65 271L136 249Z" fill="#110e00" stroke="#110e00"></path><path d="M862 325L868 263L803 231Z" fill="#191700" stroke="#191700"></path><path d="M867 176L768 203L803 231Z" fill="#070400" stroke="#070400"></path><path d="M794 112L815 48L729 62Z" fill="#0e0b00" stroke="#0e0b00"></path><path d="M111 89L114 180L152 148Z" fill="#070400" stroke="#070400"></path><path d="M114 180L69 201L143 230Z" fill="#1b1900" stroke="#1b1900"></path><path d="M868 263L869 205L803 231Z" fill="#1b1900" stroke="#1b1900"></path><path d="M123 46L111 89L204 99Z" fill="#171500" stroke="#171500"></path><path d="M869 205L867 176L803 231Z" fill="#110e00" stroke="#110e00"></path><path d="M36 490L153 512L107 432Z" fill="#070400" stroke="#070400"></path><path d="M153 512L155 600L207 511Z" fill="#191700" stroke="#191700"></path><path d="M151 0L123 46L204 99Z" fill="#1b1900" stroke="#1b1900"></path><path d="M50 153L52 187L114 180Z" fill="#070400" stroke="#070400"></path><path d="M65 271L38 331L111 327Z" fill="#070400" stroke="#070400"></path><path d="M54 545L119 600L127 564Z" fill="#1c1b00" stroke="#1c1b00"></path><path d="M0 286L38 331L65 271Z" fill="#110e00" stroke="#110e00"></path><path d="M50 153L114 180L111 89Z" fill="#191700" stroke="#191700"></path><path d="M69 201L0 226L65 271Z" fill="#110e00" stroke="#110e00"></path><path d="M127 564L155 600L153 512Z" fill="#131100" stroke="#131100"></path><path d="M852 93L815 48L819 105Z" fill="#191700" stroke="#191700"></path><path d="M819 105L815 48L794 112Z" fill="#171500" stroke="#171500"></path><path d="M869 205L900 154L867 176Z" fill="#0b0800" stroke="#0b0800"></path><path d="M868 263L900 237L869 205Z" fill="#171500" stroke="#171500"></path><path d="M862 325L900 289L868 263Z" fill="#151300" stroke="#151300"></path><path d="M804 394L812 440L900 408Z" fill="#0b0800" stroke="#0b0800"></path><path d="M900 408L812 440L900 457Z" fill="#1c1b00" stroke="#1c1b00"></path><path d="M220 0L151 0L204 99Z" fill="#0e0b00" stroke="#0e0b00"></path><path d="M900 289L900 237L868 263Z" fill="#191700" stroke="#191700"></path><path d="M867 176L852 93L819 105Z" fill="#0e0b00" stroke="#0e0b00"></path><path d="M707 600L789 600L791 533Z" fill="#110e00" stroke="#110e00"></path><path d="M900 457L812 440L805 478Z" fill="#131100" stroke="#131100"></path><path d="M900 125L852 93L867 176Z" fill="#1c1b00" stroke="#1c1b00"></path><path d="M0 143L50 153L0 140Z" fill="#0e0b00" stroke="#0e0b00"></path><path d="M0 226L0 286L65 271Z" fill="#000000" stroke="#000000"></path><path d="M23 74L111 89L123 46Z" fill="#1c1b00" stroke="#1c1b00"></path><path d="M862 534L805 478L791 533Z" fill="#0e0b00" stroke="#0e0b00"></path><path d="M861 0L804 0L815 48Z" fill="#0e0b00" stroke="#0e0b00"></path><path d="M815 48L804 0L729 62Z" fill="#110e00" stroke="#110e00"></path><path d="M36 490L107 432L91 405Z" fill="#070400" stroke="#070400"></path><path d="M127 564L119 600L155 600Z" fill="#1b1900" stroke="#1b1900"></path><path d="M857 600L862 534L791 533Z" fill="#110e00" stroke="#110e00"></path><path d="M900 237L900 154L869 205Z" fill="#171500" stroke="#171500"></path><path d="M900 51L861 0L815 48Z" fill="#000000" stroke="#000000"></path><path d="M862 534L900 457L805 478Z" fill="#171500" stroke="#171500"></path><path d="M0 226L69 201L52 187Z" fill="#000000" stroke="#000000"></path><path d="M0 454L36 490L91 405Z" fill="#131100" stroke="#131100"></path><path d="M0 286L0 320L38 331Z" fill="#1c1b00" stroke="#1c1b00"></path><path d="M900 154L900 125L867 176Z" fill="#000000" stroke="#000000"></path><path d="M0 392L91 405L38 331Z" fill="#131100" stroke="#131100"></path><path d="M0 143L0 226L52 187Z" fill="#070400" stroke="#070400"></path><path d="M0 143L52 187L50 153Z" fill="#110e00" stroke="#110e00"></path><path d="M0 320L0 392L38 331Z" fill="#151300" stroke="#151300"></path><path d="M20 600L54 545L0 568Z" fill="#0e0b00" stroke="#0e0b00"></path><path d="M36 490L54 545L153 512Z" fill="#0b0800" stroke="#0b0800"></path><path d="M151 0L87 0L123 46Z" fill="#171500" stroke="#171500"></path><path d="M87 0L83 0L123 46Z" fill="#0b0800" stroke="#0b0800"></path><path d="M0 392L0 454L91 405Z" fill="#131100" stroke="#131100"></path><path d="M789 600L857 600L791 533Z" fill="#070400" stroke="#070400"></path><path d="M862 534L900 537L900 457Z" fill="#131100" stroke="#131100"></path><path d="M857 600L900 537L862 534Z" fill="#0e0b00" stroke="#0e0b00"></path><path d="M0 140L50 153L0 93Z" fill="#0e0b00" stroke="#0e0b00"></path><path d="M23 74L50 153L111 89Z" fill="#1c1b00" stroke="#1c1b00"></path><path d="M900 51L815 48L852 93Z" fill="#1c1b00" stroke="#1c1b00"></path><path d="M83 0L23 74L123 46Z" fill="#070400" stroke="#070400"></path><path d="M900 125L900 51L852 93Z" fill="#151300" stroke="#151300"></path><path d="M0 0L0 93L23 74Z" fill="#171500" stroke="#171500"></path><path d="M23 74L0 93L50 153Z" fill="#000000" stroke="#000000"></path><path d="M857 600L900 600L900 537Z" fill="#000000" stroke="#000000"></path><path d="M900 51L900 0L861 0Z" fill="#000000" stroke="#000000"></path><path d="M0 568L54 545L36 490Z" fill="#151300" stroke="#151300"></path><path d="M54 545L20 600L119 600Z" fill="#0b0800" stroke="#0b0800"></path><path d="M0 454L0 568L36 490Z" fill="#131100" stroke="#131100"></path><path d="M0 568L0 600L20 600Z" fill="#1b1900" stroke="#1b1900"></path><path d="M83 0L0 0L23 74Z" fill="#000000" stroke="#000000"></path></g></svg>