<svg id="visual" viewBox="0 0 1920 1080" width="1920" height="1080" xmlns="http://www.w3.org/2000/svg" xmlns:xlink="http://www.w3.org/1999/xlink" version="1.1"><g stroke-width="1" stroke-linejoin="bevel"><path d="M1003 478L910 449L878 579Z" fill="#16150f" stroke="#000000"></path><path d="M878 579L1031 596L1003 478Z" fill="#39360d" stroke="#000000"></path><path d="M1038 351L885 381L910 449Z" fill="#45420a" stroke="#000000"></path><path d="M910 449L758 459L878 579Z" fill="#3f3c0c" stroke="#000000"></path><path d="M878 579L885 707L1031 596Z" fill="#0e0e0e" stroke="#000000"></path><path d="M885 381L758 459L910 449Z" fill="#4b4807" stroke="#000000"></path><path d="M878 579L758 709L885 707Z" fill="#221f0f" stroke="#000000"></path><path d="M1128 443L1038 351L1003 478Z" fill="#1c1a0f" stroke="#000000"></path><path d="M1003 478L1038 351L910 449Z" fill="#27240f" stroke="#000000"></path><path d="M1031 596L1128 443L1003 478Z" fill="#33300e" stroke="#000000"></path><path d="M784 265L793 366L856 231Z" fill="#45420a" stroke="#000000"></path><path d="M885 381L793 366L758 459Z" fill="#3f3c0c" stroke="#000000"></path><path d="M758 459L735 623L878 579Z" fill="#39360d" stroke="#000000"></path><path d="M885 707L1055 732L1031 596Z" fill="#1c1a0f" stroke="#000000"></path><path d="M1031 596L1178 624L1128 443Z" fill="#221f0f" stroke="#000000"></path><path d="M735 623L758 709L878 579Z" fill="#221f0f" stroke="#000000"></path><path d="M885 707L1009 804L1055 732Z" fill="#3f3c0c" stroke="#000000"></path><path d="M1055 732L1178 624L1031 596Z" fill="#2d2a0f" stroke="#000000"></path><path d="M627 388L673 506L758 459Z" fill="#45420a" stroke="#000000"></path><path d="M758 459L673 506L735 623Z" fill="#4b4807" stroke="#000000"></path><path d="M735 623L648 726L758 709Z" fill="#221f0f" stroke="#000000"></path><path d="M1128 443L1127 330L1038 351Z" fill="#2d2a0f" stroke="#000000"></path><path d="M856 231L793 366L885 381Z" fill="#27240f" stroke="#000000"></path><path d="M1136 275L1127 330L1277 262Z" fill="#0e0e0e" stroke="#000000"></path><path d="M884 842L1009 804L885 707Z" fill="#221f0f" stroke="#000000"></path><path d="M1055 732L1132 739L1178 624Z" fill="#2d2a0f" stroke="#000000"></path><path d="M1009 804L1132 739L1055 732Z" fill="#3f3c0c" stroke="#000000"></path><path d="M856 231L885 381L1038 351Z" fill="#4b4807" stroke="#000000"></path><path d="M793 366L627 388L758 459Z" fill="#45420a" stroke="#000000"></path><path d="M1044 206L856 231L1038 351Z" fill="#0e0e0e" stroke="#000000"></path><path d="M512 445L637 576L673 506Z" fill="#221f0f" stroke="#000000"></path><path d="M673 506L637 576L735 623Z" fill="#27240f" stroke="#000000"></path><path d="M1267 455L1127 330L1128 443Z" fill="#4b4807" stroke="#000000"></path><path d="M1127 330L1136 275L1038 351Z" fill="#16150f" stroke="#000000"></path><path d="M780 808L884 842L885 707Z" fill="#33300e" stroke="#000000"></path><path d="M758 709L780 808L885 707Z" fill="#39360d" stroke="#000000"></path><path d="M679 817L780 808L758 709Z" fill="#1c1a0f" stroke="#000000"></path><path d="M1287 710L1263 589L1178 624Z" fill="#3f3c0c" stroke="#000000"></path><path d="M1178 624L1263 589L1128 443Z" fill="#33300e" stroke="#000000"></path><path d="M1136 275L1044 206L1038 351Z" fill="#3f3c0c" stroke="#000000"></path><path d="M1263 589L1267 455L1128 443Z" fill="#4b4807" stroke="#000000"></path><path d="M655 267L627 388L793 366Z" fill="#39360d" stroke="#000000"></path><path d="M637 576L648 726L735 623Z" fill="#1c1a0f" stroke="#000000"></path><path d="M757 135L655 267L784 265Z" fill="#2d2a0f" stroke="#000000"></path><path d="M784 265L655 267L793 366Z" fill="#16150f" stroke="#000000"></path><path d="M648 726L679 817L758 709Z" fill="#3f3c0c" stroke="#000000"></path><path d="M931 988L985 958L884 842Z" fill="#221f0f" stroke="#000000"></path><path d="M1132 739L1287 710L1178 624Z" fill="#16150f" stroke="#000000"></path><path d="M1393 396L1312 390L1267 455Z" fill="#0e0e0e" stroke="#000000"></path><path d="M1177 849L1287 710L1132 739Z" fill="#221f0f" stroke="#000000"></path><path d="M1393 396L1267 455L1431 518Z" fill="#33300e" stroke="#000000"></path><path d="M1267 455L1312 390L1127 330Z" fill="#33300e" stroke="#000000"></path><path d="M1051 93L935 103L1044 206Z" fill="#3f3c0c" stroke="#000000"></path><path d="M1123 933L1177 849L1009 804Z" fill="#221f0f" stroke="#000000"></path><path d="M1009 804L1177 849L1132 739Z" fill="#221f0f" stroke="#000000"></path><path d="M1051 93L1044 206L1138 109Z" fill="#3f3c0c" stroke="#000000"></path><path d="M1044 206L935 103L856 231Z" fill="#39360d" stroke="#000000"></path><path d="M856 231L757 135L784 265Z" fill="#16150f" stroke="#000000"></path><path d="M1312 390L1277 262L1127 330Z" fill="#39360d" stroke="#000000"></path><path d="M935 103L757 135L856 231Z" fill="#3f3c0c" stroke="#000000"></path><path d="M531 325L512 445L627 388Z" fill="#1c1a0f" stroke="#000000"></path><path d="M627 388L512 445L673 506Z" fill="#4b4807" stroke="#000000"></path><path d="M637 576L531 717L648 726Z" fill="#4b4807" stroke="#000000"></path><path d="M648 726L546 830L679 817Z" fill="#27240f" stroke="#000000"></path><path d="M531 325L627 388L655 267Z" fill="#16150f" stroke="#000000"></path><path d="M931 988L884 842L748 975Z" fill="#3f3c0c" stroke="#000000"></path><path d="M884 842L985 958L1009 804Z" fill="#39360d" stroke="#000000"></path><path d="M1138 109L1044 206L1136 275Z" fill="#33300e" stroke="#000000"></path><path d="M985 958L1123 933L1009 804Z" fill="#4b4807" stroke="#000000"></path><path d="M1177 849L1308 818L1287 710Z" fill="#1c1a0f" stroke="#000000"></path><path d="M483 567L531 717L637 576Z" fill="#1c1a0f" stroke="#000000"></path><path d="M500 205L531 325L655 267Z" fill="#33300e" stroke="#000000"></path><path d="M414 519L483 567L512 445Z" fill="#16150f" stroke="#000000"></path><path d="M512 445L483 567L637 576Z" fill="#3f3c0c" stroke="#000000"></path><path d="M1250 155L1138 109L1136 275Z" fill="#4b4807" stroke="#000000"></path><path d="M748 975L884 842L780 808Z" fill="#4b4807" stroke="#000000"></path><path d="M985 958L1048 1080L1123 933Z" fill="#16150f" stroke="#000000"></path><path d="M748 975L780 808L673 949Z" fill="#45420a" stroke="#000000"></path><path d="M1292 926L1308 818L1177 849Z" fill="#39360d" stroke="#000000"></path><path d="M1431 518L1267 455L1263 589Z" fill="#4b4807" stroke="#000000"></path><path d="M1312 390L1376 247L1277 262Z" fill="#3f3c0c" stroke="#000000"></path><path d="M1431 518L1263 589L1439 578Z" fill="#1c1a0f" stroke="#000000"></path><path d="M1277 262L1250 155L1136 275Z" fill="#1c1a0f" stroke="#000000"></path><path d="M1376 247L1250 155L1277 262Z" fill="#3f3c0c" stroke="#000000"></path><path d="M673 949L780 808L679 817Z" fill="#33300e" stroke="#000000"></path><path d="M1412 695L1263 589L1287 710Z" fill="#1c1a0f" stroke="#000000"></path><path d="M420 853L546 830L531 717Z" fill="#39360d" stroke="#000000"></path><path d="M531 717L546 830L648 726Z" fill="#33300e" stroke="#000000"></path><path d="M546 830L673 949L679 817Z" fill="#2d2a0f" stroke="#000000"></path><path d="M1308 818L1412 695L1287 710Z" fill="#1c1a0f" stroke="#000000"></path><path d="M1412 695L1439 578L1263 589Z" fill="#45420a" stroke="#000000"></path><path d="M1531 387L1376 247L1393 396Z" fill="#45420a" stroke="#000000"></path><path d="M1393 396L1376 247L1312 390Z" fill="#45420a" stroke="#000000"></path><path d="M757 135L622 108L655 267Z" fill="#221f0f" stroke="#000000"></path><path d="M677 0L622 108L757 135Z" fill="#33300e" stroke="#000000"></path><path d="M785 0L757 135L935 103Z" fill="#16150f" stroke="#000000"></path><path d="M411 399L512 445L531 325Z" fill="#45420a" stroke="#000000"></path><path d="M411 399L414 519L512 445Z" fill="#45420a" stroke="#000000"></path><path d="M483 567L409 609L531 717Z" fill="#221f0f" stroke="#000000"></path><path d="M1049 0L935 103L1051 93Z" fill="#4b4807" stroke="#000000"></path><path d="M1049 0L917 0L935 103Z" fill="#2d2a0f" stroke="#000000"></path><path d="M1049 0L1051 93L1145 0Z" fill="#33300e" stroke="#000000"></path><path d="M414 519L409 609L483 567Z" fill="#3f3c0c" stroke="#000000"></path><path d="M1168 1080L1292 926L1123 933Z" fill="#27240f" stroke="#000000"></path><path d="M1123 933L1292 926L1177 849Z" fill="#45420a" stroke="#000000"></path><path d="M1308 818L1419 810L1412 695Z" fill="#221f0f" stroke="#000000"></path><path d="M1145 0L1051 93L1138 109Z" fill="#1c1a0f" stroke="#000000"></path><path d="M1145 0L1138 109L1290 0Z" fill="#39360d" stroke="#000000"></path><path d="M500 205L411 399L531 325Z" fill="#2d2a0f" stroke="#000000"></path><path d="M290 750L387 735L409 609Z" fill="#2d2a0f" stroke="#000000"></path><path d="M622 108L500 205L655 267Z" fill="#221f0f" stroke="#000000"></path><path d="M917 0L785 0L935 103Z" fill="#2d2a0f" stroke="#000000"></path><path d="M804 1080L922 1080L931 988Z" fill="#0e0e0e" stroke="#000000"></path><path d="M931 988L1048 1080L985 958Z" fill="#2d2a0f" stroke="#000000"></path><path d="M804 1080L931 988L748 975Z" fill="#3f3c0c" stroke="#000000"></path><path d="M1292 926L1419 810L1308 818Z" fill="#4b4807" stroke="#000000"></path><path d="M1412 695L1514 687L1439 578Z" fill="#2d2a0f" stroke="#000000"></path><path d="M1290 0L1138 109L1250 155Z" fill="#3f3c0c" stroke="#000000"></path><path d="M922 1080L1048 1080L931 988Z" fill="#33300e" stroke="#000000"></path><path d="M647 1080L748 975L673 949Z" fill="#221f0f" stroke="#000000"></path><path d="M647 1080L804 1080L748 975Z" fill="#39360d" stroke="#000000"></path><path d="M420 853L539 951L546 830Z" fill="#45420a" stroke="#000000"></path><path d="M546 830L539 951L673 949Z" fill="#3f3c0c" stroke="#000000"></path><path d="M785 0L677 0L757 135Z" fill="#16150f" stroke="#000000"></path><path d="M622 108L486 138L500 205Z" fill="#39360d" stroke="#000000"></path><path d="M216 595L409 609L414 519Z" fill="#3f3c0c" stroke="#000000"></path><path d="M409 609L387 735L531 717Z" fill="#45420a" stroke="#000000"></path><path d="M483 0L486 138L622 108Z" fill="#221f0f" stroke="#000000"></path><path d="M252 338L284 440L411 399Z" fill="#4b4807" stroke="#000000"></path><path d="M1419 810L1514 687L1412 695Z" fill="#27240f" stroke="#000000"></path><path d="M1555 452L1531 387L1431 518Z" fill="#4b4807" stroke="#000000"></path><path d="M1431 518L1531 387L1393 396Z" fill="#27240f" stroke="#000000"></path><path d="M1048 1080L1168 1080L1123 933Z" fill="#45420a" stroke="#000000"></path><path d="M1292 926L1424 963L1419 810Z" fill="#1c1a0f" stroke="#000000"></path><path d="M1556 583L1431 518L1439 578Z" fill="#4b4807" stroke="#000000"></path><path d="M1418 112L1290 0L1250 155Z" fill="#1c1a0f" stroke="#000000"></path><path d="M387 735L420 853L531 717Z" fill="#39360d" stroke="#000000"></path><path d="M1514 687L1556 583L1439 578Z" fill="#3f3c0c" stroke="#000000"></path><path d="M1556 583L1555 452L1431 518Z" fill="#33300e" stroke="#000000"></path><path d="M539 951L647 1080L673 949Z" fill="#2d2a0f" stroke="#000000"></path><path d="M510 1080L647 1080L539 951Z" fill="#33300e" stroke="#000000"></path><path d="M1418 112L1250 155L1376 247Z" fill="#33300e" stroke="#000000"></path><path d="M1513 157L1418 112L1376 247Z" fill="#33300e" stroke="#000000"></path><path d="M1298 1080L1424 963L1292 926Z" fill="#0e0e0e" stroke="#000000"></path><path d="M1419 810L1546 873L1514 687Z" fill="#39360d" stroke="#000000"></path><path d="M1514 687L1643 690L1556 583Z" fill="#221f0f" stroke="#000000"></path><path d="M349 204L411 399L500 205Z" fill="#221f0f" stroke="#000000"></path><path d="M411 399L284 440L414 519Z" fill="#0e0e0e" stroke="#000000"></path><path d="M281 826L402 931L420 853Z" fill="#4b4807" stroke="#000000"></path><path d="M1168 1080L1298 1080L1292 926Z" fill="#2d2a0f" stroke="#000000"></path><path d="M352 93L349 204L486 138Z" fill="#221f0f" stroke="#000000"></path><path d="M486 138L349 204L500 205Z" fill="#3f3c0c" stroke="#000000"></path><path d="M281 826L420 853L387 735Z" fill="#16150f" stroke="#000000"></path><path d="M420 853L402 931L539 951Z" fill="#2d2a0f" stroke="#000000"></path><path d="M1558 200L1376 247L1531 387Z" fill="#33300e" stroke="#000000"></path><path d="M1558 200L1513 157L1376 247Z" fill="#2d2a0f" stroke="#000000"></path><path d="M1418 112L1396 0L1290 0Z" fill="#1c1a0f" stroke="#000000"></path><path d="M216 595L290 750L409 609Z" fill="#4b4807" stroke="#000000"></path><path d="M677 0L483 0L622 108Z" fill="#0e0e0e" stroke="#000000"></path><path d="M1535 0L1396 0L1418 112Z" fill="#221f0f" stroke="#000000"></path><path d="M1658 233L1558 200L1531 387Z" fill="#4b4807" stroke="#000000"></path><path d="M1513 157L1535 0L1418 112Z" fill="#221f0f" stroke="#000000"></path><path d="M1636 453L1531 387L1555 452Z" fill="#3f3c0c" stroke="#000000"></path><path d="M402 931L510 1080L539 951Z" fill="#4b4807" stroke="#000000"></path><path d="M1573 987L1546 873L1424 963Z" fill="#16150f" stroke="#000000"></path><path d="M1424 963L1546 873L1419 810Z" fill="#39360d" stroke="#000000"></path><path d="M1658 623L1636 453L1556 583Z" fill="#39360d" stroke="#000000"></path><path d="M1556 583L1636 453L1555 452Z" fill="#27240f" stroke="#000000"></path><path d="M349 204L252 338L411 399Z" fill="#33300e" stroke="#000000"></path><path d="M284 440L216 595L414 519Z" fill="#2d2a0f" stroke="#000000"></path><path d="M228 269L252 338L349 204Z" fill="#0e0e0e" stroke="#000000"></path><path d="M290 750L281 826L387 735Z" fill="#33300e" stroke="#000000"></path><path d="M402 931L396 1080L510 1080Z" fill="#16150f" stroke="#000000"></path><path d="M123 802L281 826L290 750Z" fill="#45420a" stroke="#000000"></path><path d="M1546 873L1643 690L1514 687Z" fill="#221f0f" stroke="#000000"></path><path d="M137 499L216 595L284 440Z" fill="#1c1a0f" stroke="#000000"></path><path d="M1643 690L1658 623L1556 583Z" fill="#221f0f" stroke="#000000"></path><path d="M483 0L352 93L486 138Z" fill="#3f3c0c" stroke="#000000"></path><path d="M1298 1080L1412 1080L1424 963Z" fill="#16150f" stroke="#000000"></path><path d="M233 130L228 269L349 204Z" fill="#27240f" stroke="#000000"></path><path d="M118 366L137 499L284 440Z" fill="#33300e" stroke="#000000"></path><path d="M1636 453L1682 365L1531 387Z" fill="#33300e" stroke="#000000"></path><path d="M1762 367L1682 365L1636 453Z" fill="#3f3c0c" stroke="#000000"></path><path d="M261 957L396 1080L402 931Z" fill="#0e0e0e" stroke="#000000"></path><path d="M1682 365L1658 233L1531 387Z" fill="#27240f" stroke="#000000"></path><path d="M1558 200L1629 157L1513 157Z" fill="#45420a" stroke="#000000"></path><path d="M483 0L361 0L352 93Z" fill="#221f0f" stroke="#000000"></path><path d="M352 93L233 130L349 204Z" fill="#39360d" stroke="#000000"></path><path d="M1658 233L1629 157L1558 200Z" fill="#2d2a0f" stroke="#000000"></path><path d="M1546 873L1644 866L1643 690Z" fill="#39360d" stroke="#000000"></path><path d="M1643 690L1781 604L1658 623Z" fill="#1c1a0f" stroke="#000000"></path><path d="M1813 515L1762 367L1636 453Z" fill="#221f0f" stroke="#000000"></path><path d="M1643 942L1644 866L1546 873Z" fill="#3f3c0c" stroke="#000000"></path><path d="M1511 1080L1573 987L1424 963Z" fill="#27240f" stroke="#000000"></path><path d="M1629 157L1535 0L1513 157Z" fill="#33300e" stroke="#000000"></path><path d="M1412 1080L1511 1080L1424 963Z" fill="#221f0f" stroke="#000000"></path><path d="M118 366L284 440L252 338Z" fill="#2d2a0f" stroke="#000000"></path><path d="M123 802L261 957L281 826Z" fill="#4b4807" stroke="#000000"></path><path d="M134 727L290 750L216 595Z" fill="#3f3c0c" stroke="#000000"></path><path d="M281 826L261 957L402 931Z" fill="#4b4807" stroke="#000000"></path><path d="M225 0L233 130L352 93Z" fill="#1c1a0f" stroke="#000000"></path><path d="M228 269L146 262L252 338Z" fill="#1c1a0f" stroke="#000000"></path><path d="M137 499L120 569L216 595Z" fill="#27240f" stroke="#000000"></path><path d="M1628 1080L1643 942L1573 987Z" fill="#1c1a0f" stroke="#000000"></path><path d="M1573 987L1643 942L1546 873Z" fill="#4b4807" stroke="#000000"></path><path d="M1781 604L1636 453L1658 623Z" fill="#3f3c0c" stroke="#000000"></path><path d="M120 569L134 727L216 595Z" fill="#0e0e0e" stroke="#000000"></path><path d="M233 130L146 262L228 269Z" fill="#39360d" stroke="#000000"></path><path d="M137 499L0 486L120 569Z" fill="#0e0e0e" stroke="#000000"></path><path d="M146 262L118 366L252 338Z" fill="#2d2a0f" stroke="#000000"></path><path d="M1803 118L1649 0L1629 157Z" fill="#33300e" stroke="#000000"></path><path d="M1629 157L1649 0L1535 0Z" fill="#2d2a0f" stroke="#000000"></path><path d="M1682 365L1802 254L1658 233Z" fill="#33300e" stroke="#000000"></path><path d="M1781 604L1643 690L1829 705Z" fill="#1c1a0f" stroke="#000000"></path><path d="M1794 819L1643 690L1644 866Z" fill="#39360d" stroke="#000000"></path><path d="M0 802L123 802L134 727Z" fill="#1c1a0f" stroke="#000000"></path><path d="M134 727L123 802L290 750Z" fill="#0e0e0e" stroke="#000000"></path><path d="M118 998L266 1080L261 957Z" fill="#27240f" stroke="#000000"></path><path d="M261 957L266 1080L396 1080Z" fill="#33300e" stroke="#000000"></path><path d="M1781 604L1813 515L1636 453Z" fill="#2d2a0f" stroke="#000000"></path><path d="M1802 254L1682 365L1762 367Z" fill="#4b4807" stroke="#000000"></path><path d="M1803 118L1629 157L1658 233Z" fill="#27240f" stroke="#000000"></path><path d="M361 0L225 0L352 93Z" fill="#1c1a0f" stroke="#000000"></path><path d="M233 130L105 154L146 262Z" fill="#39360d" stroke="#000000"></path><path d="M1511 1080L1628 1080L1573 987Z" fill="#16150f" stroke="#000000"></path><path d="M1774 922L1794 819L1644 866Z" fill="#1c1a0f" stroke="#000000"></path><path d="M1920 587L1920 494L1813 515Z" fill="#45420a" stroke="#000000"></path><path d="M1774 922L1644 866L1643 942Z" fill="#2d2a0f" stroke="#000000"></path><path d="M1920 350L1802 254L1762 367Z" fill="#1c1a0f" stroke="#000000"></path><path d="M1794 819L1829 705L1643 690Z" fill="#27240f" stroke="#000000"></path><path d="M1920 221L1803 118L1802 254Z" fill="#33300e" stroke="#000000"></path><path d="M109 0L105 154L233 130Z" fill="#39360d" stroke="#000000"></path><path d="M146 262L0 322L118 366Z" fill="#33300e" stroke="#000000"></path><path d="M118 366L0 486L137 499Z" fill="#2d2a0f" stroke="#000000"></path><path d="M120 569L0 621L134 727Z" fill="#27240f" stroke="#000000"></path><path d="M1779 1080L1774 922L1643 942Z" fill="#45420a" stroke="#000000"></path><path d="M1920 759L1920 587L1829 705Z" fill="#3f3c0c" stroke="#000000"></path><path d="M0 322L0 486L118 366Z" fill="#4b4807" stroke="#000000"></path><path d="M0 486L0 621L120 569Z" fill="#33300e" stroke="#000000"></path><path d="M123 802L118 998L261 957Z" fill="#3f3c0c" stroke="#000000"></path><path d="M0 988L118 998L123 802Z" fill="#221f0f" stroke="#000000"></path><path d="M0 621L0 705L134 727Z" fill="#27240f" stroke="#000000"></path><path d="M1920 350L1762 367L1813 515Z" fill="#3f3c0c" stroke="#000000"></path><path d="M1802 254L1803 118L1658 233Z" fill="#45420a" stroke="#000000"></path><path d="M0 264L0 322L146 262Z" fill="#45420a" stroke="#000000"></path><path d="M105 154L0 264L146 262Z" fill="#16150f" stroke="#000000"></path><path d="M0 124L0 264L105 154Z" fill="#221f0f" stroke="#000000"></path><path d="M0 705L0 802L134 727Z" fill="#3f3c0c" stroke="#000000"></path><path d="M225 0L109 0L233 130Z" fill="#16150f" stroke="#000000"></path><path d="M1920 587L1781 604L1829 705Z" fill="#4b4807" stroke="#000000"></path><path d="M1920 587L1813 515L1781 604Z" fill="#1c1a0f" stroke="#000000"></path><path d="M1920 759L1829 705L1794 819Z" fill="#39360d" stroke="#000000"></path><path d="M1920 0L1779 0L1803 118Z" fill="#221f0f" stroke="#000000"></path><path d="M1803 118L1779 0L1649 0Z" fill="#0e0e0e" stroke="#000000"></path><path d="M1920 494L1920 350L1813 515Z" fill="#1c1a0f" stroke="#000000"></path><path d="M1628 1080L1779 1080L1643 942Z" fill="#27240f" stroke="#000000"></path><path d="M1920 840L1920 759L1794 819Z" fill="#45420a" stroke="#000000"></path><path d="M0 988L94 1080L118 998Z" fill="#45420a" stroke="#000000"></path><path d="M118 998L94 1080L266 1080Z" fill="#3f3c0c" stroke="#000000"></path><path d="M1920 840L1794 819L1774 922Z" fill="#221f0f" stroke="#000000"></path><path d="M109 0L0 124L105 154Z" fill="#27240f" stroke="#000000"></path><path d="M1920 350L1920 221L1802 254Z" fill="#45420a" stroke="#000000"></path><path d="M1920 965L1920 840L1774 922Z" fill="#221f0f" stroke="#000000"></path><path d="M0 802L0 988L123 802Z" fill="#16150f" stroke="#000000"></path><path d="M1920 221L1920 112L1803 118Z" fill="#3f3c0c" stroke="#000000"></path><path d="M109 0L0 0L0 124Z" fill="#27240f" stroke="#000000"></path><path d="M1779 1080L1920 965L1774 922Z" fill="#16150f" stroke="#000000"></path><path d="M0 988L0 1080L94 1080Z" fill="#2d2a0f" stroke="#000000"></path><path d="M1920 112L1920 0L1803 118Z" fill="#39360d" stroke="#000000"></path><path d="M1779 1080L1920 1080L1920 965Z" fill="#221f0f" stroke="#000000"></path></g></svg>