<svg id="visual" viewBox="0 0 960 540" width="960" height="540" xmlns="http://www.w3.org/2000/svg" xmlns:xlink="http://www.w3.org/1999/xlink" version="1.1"><g stroke-width="1" stroke-linejoin="bevel"><path d="M528 278.6L548 340.6L614 277.4Z" fill="#252001" stroke="#252001"></path><path d="M614 277.4L603 262.4L528 278.6Z" fill="#221c00" stroke="#221c00"></path><path d="M548 340.6L639 318.6L614 277.4Z" fill="#292402" stroke="#292402"></path><path d="M528 278.6L526 364.7L548 340.6Z" fill="#130700" stroke="#130700"></path><path d="M609 451.9L679 367.7L639 318.6Z" fill="#180e00" stroke="#180e00"></path><path d="M609 451.9L639 318.6L548 340.6Z" fill="#292402" stroke="#292402"></path><path d="M639 318.6L729 227.4L614 277.4Z" fill="#130700" stroke="#130700"></path><path d="M576 113.3L449 211.4L528 278.6Z" fill="#221c00" stroke="#221c00"></path><path d="M528 278.6L409 387.7L526 364.7Z" fill="#130700" stroke="#130700"></path><path d="M409 387.7L481 419.7L526 364.7Z" fill="#1f1800" stroke="#1f1800"></path><path d="M526 364.7L609 451.9L548 340.6Z" fill="#130700" stroke="#130700"></path><path d="M517 484.9L609 451.9L526 364.7Z" fill="#292402" stroke="#292402"></path><path d="M449 211.4L418 245.4L528 278.6Z" fill="#221c00" stroke="#221c00"></path><path d="M748 364.7L728 348.6L679 367.7Z" fill="#333004" stroke="#333004"></path><path d="M679 367.7L728 348.6L639 318.6Z" fill="#333004" stroke="#333004"></path><path d="M614 277.4L729 227.4L603 262.4Z" fill="#252001" stroke="#252001"></path><path d="M576 113.3L440 196.3L449 211.4Z" fill="#1f1800" stroke="#1f1800"></path><path d="M449 211.4L440 196.3L418 245.4Z" fill="#1f1800" stroke="#1f1800"></path><path d="M728 348.6L729 227.4L639 318.6Z" fill="#130700" stroke="#130700"></path><path d="M603 262.4L576 113.3L528 278.6Z" fill="#2c2803" stroke="#2c2803"></path><path d="M409 387.7L461 436.9L481 419.7Z" fill="#1f1800" stroke="#1f1800"></path><path d="M481 419.7L517 484.9L526 364.7Z" fill="#302c04" stroke="#302c04"></path><path d="M714 178.3L644 133.3L603 262.4Z" fill="#292402" stroke="#292402"></path><path d="M418 245.4L409 387.7L528 278.6Z" fill="#292402" stroke="#292402"></path><path d="M644 133.3L576 113.3L603 262.4Z" fill="#292402" stroke="#292402"></path><path d="M729 227.4L714 178.3L603 262.4Z" fill="#333004" stroke="#333004"></path><path d="M743 438.9L748 364.7L679 367.7Z" fill="#302c04" stroke="#302c04"></path><path d="M728 348.6L814 332.6L729 227.4Z" fill="#2c2803" stroke="#2c2803"></path><path d="M461 436.9L517 484.9L481 419.7Z" fill="#1f1800" stroke="#1f1800"></path><path d="M418 245.4L370 305.6L409 387.7Z" fill="#2c2803" stroke="#2c2803"></path><path d="M354 216.4L370 305.6L418 245.4Z" fill="#221c00" stroke="#221c00"></path><path d="M609 451.9L743 438.9L679 367.7Z" fill="#130700" stroke="#130700"></path><path d="M652 540L743 438.9L609 451.9Z" fill="#221c00" stroke="#221c00"></path><path d="M814 332.6L779 195.4L729 227.4Z" fill="#1b1300" stroke="#1b1300"></path><path d="M729 227.4L779 195.4L714 178.3Z" fill="#180e00" stroke="#180e00"></path><path d="M714 178.3L669 84.1L644 133.3Z" fill="#180e00" stroke="#180e00"></path><path d="M814 332.6L728 348.6L748 364.7Z" fill="#2c2803" stroke="#2c2803"></path><path d="M389 127.3L354 216.4L440 196.3Z" fill="#1f1800" stroke="#1f1800"></path><path d="M440 196.3L354 216.4L418 245.4Z" fill="#1f1800" stroke="#1f1800"></path><path d="M770 148.3L669 84.1L714 178.3Z" fill="#252001" stroke="#252001"></path><path d="M644 133.3L669 84.1L576 113.3Z" fill="#333004" stroke="#333004"></path><path d="M329 344.6L337 343.7L370 305.6Z" fill="#2c2803" stroke="#2c2803"></path><path d="M370 305.6L337 343.7L409 387.7Z" fill="#1b1300" stroke="#1b1300"></path><path d="M422 513.9L517 484.9L461 436.9Z" fill="#221c00" stroke="#221c00"></path><path d="M422 513.9L477 540L517 484.9Z" fill="#292402" stroke="#292402"></path><path d="M517 484.9L599 540L609 451.9Z" fill="#333004" stroke="#333004"></path><path d="M848 421.7L814 332.6L748 364.7Z" fill="#1f1800" stroke="#1f1800"></path><path d="M257 327.6L329 344.6L370 305.6Z" fill="#180e00" stroke="#180e00"></path><path d="M337 343.7L329 344.6L409 387.7Z" fill="#333004" stroke="#333004"></path><path d="M782 58.1L770 148.3L864 121.3Z" fill="#2c2803" stroke="#2c2803"></path><path d="M779 195.4L770 148.3L714 178.3Z" fill="#302c04" stroke="#302c04"></path><path d="M416 78.1L440 196.3L576 113.3Z" fill="#333004" stroke="#333004"></path><path d="M416 78.1L389 127.3L440 196.3Z" fill="#000000" stroke="#000000"></path><path d="M599 540L652 540L609 451.9Z" fill="#180e00" stroke="#180e00"></path><path d="M422 513.9L461 436.9L409 387.7Z" fill="#000000" stroke="#000000"></path><path d="M517 484.9L477 540L599 540Z" fill="#292402" stroke="#292402"></path><path d="M325 494.9L422 513.9L409 387.7Z" fill="#1f1800" stroke="#1f1800"></path><path d="M585 0L548 37.1L576 113.3Z" fill="#2c2803" stroke="#2c2803"></path><path d="M470 27.1L416 78.1L576 113.3Z" fill="#1f1800" stroke="#1f1800"></path><path d="M347 540L431 540L422 513.9Z" fill="#302c04" stroke="#302c04"></path><path d="M422 513.9L431 540L477 540Z" fill="#1f1800" stroke="#1f1800"></path><path d="M652 540L712 540L743 438.9Z" fill="#130700" stroke="#130700"></path><path d="M743 438.9L810 456.9L748 364.7Z" fill="#1b1300" stroke="#1b1300"></path><path d="M389 127.3L314 179.3L354 216.4Z" fill="#252001" stroke="#252001"></path><path d="M354 216.4L257 327.6L370 305.6Z" fill="#333004" stroke="#333004"></path><path d="M335 69.1L314 179.3L389 127.3Z" fill="#252001" stroke="#252001"></path><path d="M806 540L810 456.9L743 438.9Z" fill="#221c00" stroke="#221c00"></path><path d="M548 37.1L470 27.1L576 113.3Z" fill="#000000" stroke="#000000"></path><path d="M848 421.7L857 349.7L814 332.6Z" fill="#302c04" stroke="#302c04"></path><path d="M814 332.6L884 227.4L779 195.4Z" fill="#221c00" stroke="#221c00"></path><path d="M669 84.1L585 0L576 113.3Z" fill="#1b1300" stroke="#1b1300"></path><path d="M548 37.1L518 0L470 27.1Z" fill="#2c2803" stroke="#2c2803"></path><path d="M679 0L585 0L669 84.1Z" fill="#000000" stroke="#000000"></path><path d="M810 456.9L848 421.7L748 364.7Z" fill="#292402" stroke="#292402"></path><path d="M585 0L518 0L548 37.1Z" fill="#180e00" stroke="#180e00"></path><path d="M782 58.1L669 84.1L770 148.3Z" fill="#2c2803" stroke="#2c2803"></path><path d="M782 58.1L731 29.1L669 84.1Z" fill="#2c2803" stroke="#2c2803"></path><path d="M848 421.7L881 347.6L857 349.7Z" fill="#333004" stroke="#333004"></path><path d="M857 349.7L884 227.4L814 332.6Z" fill="#333004" stroke="#333004"></path><path d="M329 344.6L325 494.9L409 387.7Z" fill="#130700" stroke="#130700"></path><path d="M240 445.9L325 494.9L329 344.6Z" fill="#333004" stroke="#333004"></path><path d="M314 179.3L257 327.6L354 216.4Z" fill="#1f1800" stroke="#1f1800"></path><path d="M810 456.9L833 477.9L848 421.7Z" fill="#333004" stroke="#333004"></path><path d="M960 430.7L960 340.6L881 347.6Z" fill="#292402" stroke="#292402"></path><path d="M806 540L833 477.9L810 456.9Z" fill="#2c2803" stroke="#2c2803"></path><path d="M692 0L679 0L669 84.1Z" fill="#180e00" stroke="#180e00"></path><path d="M864 121.3L770 148.3L779 195.4Z" fill="#000000" stroke="#000000"></path><path d="M881 347.6L884 227.4L857 349.7Z" fill="#1f1800" stroke="#1f1800"></path><path d="M753 0L692 0L731 29.1Z" fill="#252001" stroke="#252001"></path><path d="M731 29.1L692 0L669 84.1Z" fill="#1f1800" stroke="#1f1800"></path><path d="M325 494.9L347 540L422 513.9Z" fill="#221c00" stroke="#221c00"></path><path d="M399 0L335 69.1L416 78.1Z" fill="#2c2803" stroke="#2c2803"></path><path d="M416 78.1L335 69.1L389 127.3Z" fill="#333004" stroke="#333004"></path><path d="M314 179.3L187 262.6L257 327.6Z" fill="#333004" stroke="#333004"></path><path d="M399 0L416 78.1L470 27.1Z" fill="#2c2803" stroke="#2c2803"></path><path d="M712 540L806 540L743 438.9Z" fill="#1f1800" stroke="#1f1800"></path><path d="M884 227.4L864 121.3L779 195.4Z" fill="#252001" stroke="#252001"></path><path d="M518 0L399 0L470 27.1Z" fill="#333004" stroke="#333004"></path><path d="M782 58.1L753 0L731 29.1Z" fill="#130700" stroke="#130700"></path><path d="M846 0L753 0L782 58.1Z" fill="#000000" stroke="#000000"></path><path d="M129 389.7L229 396.7L114 348.7Z" fill="#333004" stroke="#333004"></path><path d="M257 327.6L229 396.7L329 344.6Z" fill="#252001" stroke="#252001"></path><path d="M325 494.9L195 540L347 540Z" fill="#2c2803" stroke="#2c2803"></path><path d="M229 396.7L240 445.9L329 344.6Z" fill="#333004" stroke="#333004"></path><path d="M399 0L347 0L335 69.1Z" fill="#180e00" stroke="#180e00"></path><path d="M225 106.3L207 179.4L314 179.3Z" fill="#292402" stroke="#292402"></path><path d="M225 106.3L314 179.3L335 69.1Z" fill="#000000" stroke="#000000"></path><path d="M207 179.4L187 262.6L314 179.3Z" fill="#333004" stroke="#333004"></path><path d="M134 457.9L195 540L240 445.9Z" fill="#180e00" stroke="#180e00"></path><path d="M347 0L283 35.1L335 69.1Z" fill="#2c2803" stroke="#2c2803"></path><path d="M960 430.7L881 347.6L848 421.7Z" fill="#221c00" stroke="#221c00"></path><path d="M881 347.6L960 340.6L884 227.4Z" fill="#1b1300" stroke="#1b1300"></path><path d="M884 227.4L960 207.4L864 121.3Z" fill="#1f1800" stroke="#1f1800"></path><path d="M960 430.7L848 421.7L960 485.9Z" fill="#292402" stroke="#292402"></path><path d="M283 35.1L225 106.3L335 69.1Z" fill="#252001" stroke="#252001"></path><path d="M960 340.6L960 207.4L884 227.4Z" fill="#1f1800" stroke="#1f1800"></path><path d="M864 121.3L846 0L782 58.1Z" fill="#000000" stroke="#000000"></path><path d="M924 78.1L846 0L864 121.3Z" fill="#1b1300" stroke="#1b1300"></path><path d="M960 485.9L848 421.7L833 477.9Z" fill="#1b1300" stroke="#1b1300"></path><path d="M960 127.3L924 78.1L864 121.3Z" fill="#1b1300" stroke="#1b1300"></path><path d="M960 207.4L960 127.3L864 121.3Z" fill="#1f1800" stroke="#1f1800"></path><path d="M806 540L926 540L833 477.9Z" fill="#000000" stroke="#000000"></path><path d="M926 540L960 485.9L833 477.9Z" fill="#292402" stroke="#292402"></path><path d="M347 0L259 0L283 35.1Z" fill="#302c04" stroke="#302c04"></path><path d="M283 35.1L259 0L225 106.3Z" fill="#252001" stroke="#252001"></path><path d="M97 130.3L207 179.4L225 106.3Z" fill="#000000" stroke="#000000"></path><path d="M97 130.3L146 204.3L207 179.4Z" fill="#130700" stroke="#130700"></path><path d="M207 179.4L146 204.3L187 262.6Z" fill="#000000" stroke="#000000"></path><path d="M134 457.9L240 445.9L229 396.7Z" fill="#2c2803" stroke="#2c2803"></path><path d="M229 396.7L257 327.6L114 348.7Z" fill="#1f1800" stroke="#1f1800"></path><path d="M240 445.9L195 540L325 494.9Z" fill="#302c04" stroke="#302c04"></path><path d="M114 348.7L257 327.6L187 262.6Z" fill="#333004" stroke="#333004"></path><path d="M960 127.3L960 59.1L924 78.1Z" fill="#130700" stroke="#130700"></path><path d="M924 78.1L960 0L846 0Z" fill="#221c00" stroke="#221c00"></path><path d="M926 540L960 540L960 485.9Z" fill="#252001" stroke="#252001"></path><path d="M108 276.4L114 348.7L187 262.6Z" fill="#180e00" stroke="#180e00"></path><path d="M146 204.3L108 276.4L187 262.6Z" fill="#333004" stroke="#333004"></path><path d="M47 421.9L134 457.9L129 389.7Z" fill="#302c04" stroke="#302c04"></path><path d="M129 389.7L134 457.9L229 396.7Z" fill="#252001" stroke="#252001"></path><path d="M108 276.4L92 318.6L114 348.7Z" fill="#333004" stroke="#333004"></path><path d="M114 348.7L47 421.9L129 389.7Z" fill="#292402" stroke="#292402"></path><path d="M32 540L149 540L134 457.9Z" fill="#180e00" stroke="#180e00"></path><path d="M134 457.9L149 540L195 540Z" fill="#2c2803" stroke="#2c2803"></path><path d="M960 59.1L960 0L924 78.1Z" fill="#1f1800" stroke="#1f1800"></path><path d="M146 204.3L62 190.4L108 276.4Z" fill="#2c2803" stroke="#2c2803"></path><path d="M108 276.4L0 277.4L92 318.6Z" fill="#1f1800" stroke="#1f1800"></path><path d="M130 49.1L97 130.3L225 106.3Z" fill="#130700" stroke="#130700"></path><path d="M259 0L130 49.1L225 106.3Z" fill="#1f1800" stroke="#1f1800"></path><path d="M0 126.3L62 190.4L97 130.3Z" fill="#333004" stroke="#333004"></path><path d="M97 130.3L62 190.4L146 204.3Z" fill="#130700" stroke="#130700"></path><path d="M259 0L132 0L130 49.1Z" fill="#292402" stroke="#292402"></path><path d="M130 49.1L45 76.1L97 130.3Z" fill="#221c00" stroke="#221c00"></path><path d="M132 0L124 0L130 49.1Z" fill="#1b1300" stroke="#1b1300"></path><path d="M0 372.7L47 421.9L92 318.6Z" fill="#2c2803" stroke="#2c2803"></path><path d="M92 318.6L47 421.9L114 348.7Z" fill="#252001" stroke="#252001"></path><path d="M124 0L45 76.1L130 49.1Z" fill="#2c2803" stroke="#2c2803"></path><path d="M0 272.6L0 277.4L108 276.4Z" fill="#000000" stroke="#000000"></path><path d="M0 272.6L108 276.4L62 190.4Z" fill="#2c2803" stroke="#2c2803"></path><path d="M0 126.3L0 272.6L62 190.4Z" fill="#292402" stroke="#292402"></path><path d="M0 277.4L0 372.7L92 318.6Z" fill="#302c04" stroke="#302c04"></path><path d="M47 421.9L32 540L134 457.9Z" fill="#292402" stroke="#292402"></path><path d="M0 499.9L32 540L47 421.9Z" fill="#000000" stroke="#000000"></path><path d="M45 76.1L0 126.3L97 130.3Z" fill="#180e00" stroke="#180e00"></path><path d="M0 372.7L0 499.9L47 421.9Z" fill="#252001" stroke="#252001"></path><path d="M0 499.9L0 540L32 540Z" fill="#252001" stroke="#252001"></path><path d="M0 0L0 53.1L45 76.1Z" fill="#180e00" stroke="#180e00"></path><path d="M45 76.1L0 53.1L0 126.3Z" fill="#180e00" stroke="#180e00"></path><path d="M124 0L0 0L45 76.1Z" fill="#180e00" stroke="#180e00"></path></g></svg>