<svg id="visual" viewBox="0 0 3840 2160" width="3840" height="2160" xmlns="http://www.w3.org/2000/svg" xmlns:xlink="http://www.w3.org/1999/xlink" version="1.1"><path d="M0 541L349 541L349 930L698 930L698 714L1047 714L1047 584L1396 584L1396 627L1745 627L1745 584L2095 584L2095 627L2444 627L2444 714L2793 714L2793 347L3142 347L3142 671L3491 671L3491 325L3840 325L3840 930L3840 0L3840 0L3491 0L3491 0L3142 0L3142 0L2793 0L2793 0L2444 0L2444 0L2095 0L2095 0L1745 0L1745 0L1396 0L1396 0L1047 0L1047 0L698 0L698 0L349 0L349 0L0 0Z" fill="#6a6400"></path><path d="M0 1448L349 1448L349 1254L698 1254L698 1297L1047 1297L1047 1124L1396 1124L1396 1016L1745 1016L1745 1340L2095 1340L2095 1103L2444 1103L2444 995L2793 995L2793 1211L3142 1211L3142 1189L3491 1189L3491 1038L3840 1038L3840 1297L3840 928L3840 323L3491 323L3491 669L3142 669L3142 345L2793 345L2793 712L2444 712L2444 625L2095 625L2095 582L1745 582L1745 625L1396 625L1396 582L1047 582L1047 712L698 712L698 928L349 928L349 539L0 539Z" fill="#2c2d0a"></path><path d="M0 1815L349 1815L349 1513L698 1513L698 1599L1047 1599L1047 1643L1396 1643L1396 1535L1745 1535L1745 1599L2095 1599L2095 1643L2444 1643L2444 1448L2793 1448L2793 1794L3142 1794L3142 1751L3491 1751L3491 1535L3840 1535L3840 1621L3840 1295L3840 1036L3491 1036L3491 1187L3142 1187L3142 1209L2793 1209L2793 993L2444 993L2444 1101L2095 1101L2095 1338L1745 1338L1745 1014L1396 1014L1396 1122L1047 1122L1047 1295L698 1295L698 1252L349 1252L349 1446L0 1446Z" fill="#0e0e00"></path><path d="M0 2031L349 2031L349 1988L698 1988L698 1902L1047 1902L1047 1902L1396 1902L1396 1923L1745 1923L1745 1815L2095 1815L2095 1967L2444 1967L2444 1880L2793 1880L2793 2031L3142 2031L3142 1945L3491 1945L3491 1945L3840 1945L3840 1794L3840 1619L3840 1533L3491 1533L3491 1749L3142 1749L3142 1792L2793 1792L2793 1446L2444 1446L2444 1641L2095 1641L2095 1597L1745 1597L1745 1533L1396 1533L1396 1641L1047 1641L1047 1597L698 1597L698 1511L349 1511L349 1813L0 1813Z" fill="#2c2d0a"></path><path d="M0 2161L349 2161L349 2161L698 2161L698 2161L1047 2161L1047 2161L1396 2161L1396 2161L1745 2161L1745 2161L2095 2161L2095 2161L2444 2161L2444 2161L2793 2161L2793 2161L3142 2161L3142 2161L3491 2161L3491 2161L3840 2161L3840 2161L3840 1792L3840 1943L3491 1943L3491 1943L3142 1943L3142 2029L2793 2029L2793 1878L2444 1878L2444 1965L2095 1965L2095 1813L1745 1813L1745 1921L1396 1921L1396 1900L1047 1900L1047 1900L698 1900L698 1986L349 1986L349 2029L0 2029Z" fill="#6a6400"></path></svg>