<svg id="visual" viewBox="0 0 1920 1080" width="1920" height="1080" xmlns="http://www.w3.org/2000/svg" xmlns:xlink="http://www.w3.org/1999/xlink" version="1.1"><path d="M0 271L175 271L175 465L349 465L349 357L524 357L524 293L698 293L698 314L873 314L873 293L1047 293L1047 314L1222 314L1222 357L1396 357L1396 174L1571 174L1571 336L1745 336L1745 163L1920 163L1920 465L1920 0L1920 0L1745 0L1745 0L1571 0L1571 0L1396 0L1396 0L1222 0L1222 0L1047 0L1047 0L873 0L873 0L698 0L698 0L524 0L524 0L349 0L349 0L175 0L175 0L0 0Z" fill="#6a6400"></path><path d="M0 725L175 725L175 627L349 627L349 649L524 649L524 563L698 563L698 509L873 509L873 671L1047 671L1047 552L1222 552L1222 498L1396 498L1396 606L1571 606L1571 595L1745 595L1745 519L1920 519L1920 649L1920 463L1920 161L1745 161L1745 334L1571 334L1571 172L1396 172L1396 355L1222 355L1222 312L1047 312L1047 291L873 291L873 312L698 312L698 291L524 291L524 355L349 355L349 463L175 463L175 269L0 269Z" fill="#2c2d0a"></path><path d="M0 908L175 908L175 757L349 757L349 800L524 800L524 822L698 822L698 768L873 768L873 800L1047 800L1047 822L1222 822L1222 725L1396 725L1396 897L1571 897L1571 876L1745 876L1745 768L1920 768L1920 811L1920 647L1920 517L1745 517L1745 593L1571 593L1571 604L1396 604L1396 496L1222 496L1222 550L1047 550L1047 669L873 669L873 507L698 507L698 561L524 561L524 647L349 647L349 625L175 625L175 723L0 723Z" fill="#0e0e00"></path><path d="M0 1016L175 1016L175 995L349 995L349 951L524 951L524 951L698 951L698 962L873 962L873 908L1047 908L1047 984L1222 984L1222 941L1396 941L1396 1016L1571 1016L1571 973L1745 973L1745 973L1920 973L1920 897L1920 809L1920 766L1745 766L1745 874L1571 874L1571 895L1396 895L1396 723L1222 723L1222 820L1047 820L1047 798L873 798L873 766L698 766L698 820L524 820L524 798L349 798L349 755L175 755L175 906L0 906Z" fill="#2c2d0a"></path><path d="M0 1081L175 1081L175 1081L349 1081L349 1081L524 1081L524 1081L698 1081L698 1081L873 1081L873 1081L1047 1081L1047 1081L1222 1081L1222 1081L1396 1081L1396 1081L1571 1081L1571 1081L1745 1081L1745 1081L1920 1081L1920 1081L1920 895L1920 971L1745 971L1745 971L1571 971L1571 1014L1396 1014L1396 939L1222 939L1222 982L1047 982L1047 906L873 906L873 960L698 960L698 949L524 949L524 949L349 949L349 993L175 993L175 1014L0 1014Z" fill="#6a6400"></path></svg>