<svg id="visual" viewBox="0 0 960 540" width="960" height="540" xmlns="http://www.w3.org/2000/svg" xmlns:xlink="http://www.w3.org/1999/xlink" version="1.1"><rect x="0" y="0" width="960" height="540" fill="#0b0c09"></rect><path d="M0 448L22.8 433.5C45.7 419 91.3 390 137 392.2C182.7 394.3 228.3 427.7 274 442.5C319.7 457.3 365.3 453.7 411.2 434.3C457 415 503 380 548.8 364.5C594.7 349 640.3 353 686 365.2C731.7 377.3 777.3 397.7 823 406.2C868.7 414.7 914.3 411.3 937.2 409.7L960 408L960 541L937.2 541C914.3 541 868.7 541 823 541C777.3 541 731.7 541 686 541C640.3 541 594.7 541 548.8 541C503 541 457 541 411.2 541C365.3 541 319.7 541 274 541C228.3 541 182.7 541 137 541C91.3 541 45.7 541 22.8 541L0 541Z" fill="#5b6000" stroke-linecap="round" stroke-linejoin="miter"></path></svg>