<svg id="visual" viewBox="0 0 960 540" width="960" height="540" xmlns="http://www.w3.org/2000/svg" xmlns:xlink="http://www.w3.org/1999/xlink" version="1.1"><rect x="0" y="0" width="960" height="540" fill="#4A4A4A"></rect><path d="M666 540L657.3 530C648.7 520 631.3 500 627.7 480C624 460 634 440 636.3 420C638.7 400 633.3 380 626 360C618.7 340 609.3 320 611.8 300C614.3 280 628.7 260 632.8 240C637 220 631 200 623.7 180C616.3 160 607.7 140 601.3 120C595 100 591 80 600.5 60C610 40 633 20 644.5 10L656 0L960 0L960 10C960 20 960 40 960 60C960 80 960 100 960 120C960 140 960 160 960 180C960 200 960 220 960 240C960 260 960 280 960 300C960 320 960 340 960 360C960 380 960 400 960 420C960 440 960 460 960 480C960 500 960 520 960 530L960 540Z" fill="#505050"></path><path d="M705 540L696.8 530C688.7 520 672.3 500 673.3 480C674.3 460 692.7 440 699 420C705.3 400 699.7 380 694.2 360C688.7 340 683.3 320 678.2 300C673 280 668 260 675.8 240C683.7 220 704.3 200 714.7 180C725 160 725 140 721.7 120C718.3 100 711.7 80 712 60C712.3 40 719.7 20 723.3 10L727 0L960 0L960 10C960 20 960 40 960 60C960 80 960 100 960 120C960 140 960 160 960 180C960 200 960 220 960 240C960 260 960 280 960 300C960 320 960 340 960 360C960 380 960 400 960 420C960 440 960 460 960 480C960 500 960 520 960 530L960 540Z" fill="#5c5c5c"></path><path d="M773 540L773 530C773 520 773 500 766.2 480C759.3 460 745.7 440 742.8 420C740 400 748 380 753.3 360C758.7 340 761.3 320 760.5 300C759.7 280 755.3 260 749.2 240C743 220 735 200 730 180C725 160 723 140 723.8 120C724.7 100 728.3 80 735.8 60C743.3 40 754.7 20 760.3 10L766 0L960 0L960 10C960 20 960 40 960 60C960 80 960 100 960 120C960 140 960 160 960 180C960 200 960 220 960 240C960 260 960 280 960 300C960 320 960 340 960 360C960 380 960 400 960 420C960 440 960 460 960 480C960 500 960 520 960 530L960 540Z" fill="#696969"></path><path d="M845 540L842.2 530C839.3 520 833.7 500 827.5 480C821.3 460 814.7 440 810.5 420C806.3 400 804.7 380 805.7 360C806.7 340 810.3 320 815.8 300C821.3 280 828.7 260 829.8 240C831 220 826 200 823.8 180C821.7 160 822.3 140 820 120C817.7 100 812.3 80 816 60C819.7 40 832.3 20 838.7 10L845 0L960 0L960 10C960 20 960 40 960 60C960 80 960 100 960 120C960 140 960 160 960 180C960 200 960 220 960 240C960 260 960 280 960 300C960 320 960 340 960 360C960 380 960 400 960 420C960 440 960 460 960 480C960 500 960 520 960 530L960 540Z" fill="#767676"></path><path d="M862 540L867 530C872 520 882 500 888.3 480C894.7 460 897.3 440 897.8 420C898.3 400 896.7 380 891.8 360C887 340 879 320 874.8 300C870.7 280 870.3 260 874.3 240C878.3 220 886.7 200 889.8 180C893 160 891 140 886.5 120C882 100 875 80 877.2 60C879.3 40 890.7 20 896.3 10L902 0L960 0L960 10C960 20 960 40 960 60C960 80 960 100 960 120C960 140 960 160 960 180C960 200 960 220 960 240C960 260 960 280 960 300C960 320 960 340 960 360C960 380 960 400 960 420C960 440 960 460 960 480C960 500 960 520 960 530L960 540Z" fill="#838383"></path></svg>