<svg id="visual" viewBox="0 0 960 540" width="960" height="540" xmlns="http://www.w3.org/2000/svg" xmlns:xlink="http://www.w3.org/1999/xlink" version="1.1"><rect x="0" y="0" width="960" height="540" fill="#4A4A4A"></rect><path d="M601 540L607.3 530C613.7 520 626.3 500 631 480C635.7 460 632.3 440 635.3 420C638.3 400 647.7 380 643.8 360C640 340 623 320 612.7 300C602.3 280 598.7 260 602.7 240C606.7 220 618.3 200 617.5 180C616.7 160 603.3 140 609.5 120C615.7 100 641.3 80 652.8 60C664.3 40 661.7 20 660.3 10L659 0L960 0L960 10C960 20 960 40 960 60C960 80 960 100 960 120C960 140 960 160 960 180C960 200 960 220 960 240C960 260 960 280 960 300C960 320 960 340 960 360C960 380 960 400 960 420C960 440 960 460 960 480C960 500 960 520 960 530L960 540Z" fill="#505050"></path><path d="M686 540L689.8 530C693.7 520 701.3 500 695.7 480C690 460 671 440 665.7 420C660.3 400 668.7 380 669 360C669.3 340 661.7 320 657.5 300C653.3 280 652.7 260 655.5 240C658.3 220 664.7 200 676.7 180C688.7 160 706.3 140 705 120C703.7 100 683.3 80 678.8 60C674.3 40 685.7 20 691.3 10L697 0L960 0L960 10C960 20 960 40 960 60C960 80 960 100 960 120C960 140 960 160 960 180C960 200 960 220 960 240C960 260 960 280 960 300C960 320 960 340 960 360C960 380 960 400 960 420C960 440 960 460 960 480C960 500 960 520 960 530L960 540Z" fill="#5c5c5c"></path><path d="M749 540L751 530C753 520 757 500 754.3 480C751.7 460 742.3 440 736.7 420C731 400 729 380 734.2 360C739.3 340 751.7 320 753.5 300C755.3 280 746.7 260 744.2 240C741.7 220 745.3 200 742.7 180C740 160 731 140 734.2 120C737.3 100 752.7 80 752.3 60C752 40 736 20 728 10L720 0L960 0L960 10C960 20 960 40 960 60C960 80 960 100 960 120C960 140 960 160 960 180C960 200 960 220 960 240C960 260 960 280 960 300C960 320 960 340 960 360C960 380 960 400 960 420C960 440 960 460 960 480C960 500 960 520 960 530L960 540Z" fill="#696969"></path><path d="M819 540L822.5 530C826 520 833 500 836 480C839 460 838 440 830.2 420C822.3 400 807.7 380 799.5 360C791.3 340 789.7 320 797.5 300C805.3 280 822.7 260 826 240C829.3 220 818.7 200 815.5 180C812.3 160 816.7 140 819.8 120C823 100 825 80 824.5 60C824 40 821 20 819.5 10L818 0L960 0L960 10C960 20 960 40 960 60C960 80 960 100 960 120C960 140 960 160 960 180C960 200 960 220 960 240C960 260 960 280 960 300C960 320 960 340 960 360C960 380 960 400 960 420C960 440 960 460 960 480C960 500 960 520 960 530L960 540Z" fill="#767676"></path><path d="M863 540L862.5 530C862 520 861 500 866.2 480C871.3 460 882.7 440 882.7 420C882.7 400 871.3 380 866 360C860.7 340 861.3 320 868.8 300C876.3 280 890.7 260 894.5 240C898.3 220 891.7 200 886.5 180C881.3 160 877.7 140 876 120C874.3 100 874.7 80 876.2 60C877.7 40 880.3 20 881.7 10L883 0L960 0L960 10C960 20 960 40 960 60C960 80 960 100 960 120C960 140 960 160 960 180C960 200 960 220 960 240C960 260 960 280 960 300C960 320 960 340 960 360C960 380 960 400 960 420C960 440 960 460 960 480C960 500 960 520 960 530L960 540Z" fill="#838383"></path></svg>